<?xml version="1.0" encoding="UTF-8"?>
<svg xmlns="http://www.w3.org/2000/svg" version="1.1" viewBox="0 0 592.5 178.9">
  <defs>
    <style>
      .cls-1 {
        fill: #d9d5cb;
      }

      .cls-2 {
        stroke: #d9d5cb;
        stroke-width: 2.4px;
      }

      .cls-2, .cls-3, .cls-4, .cls-5 {
        stroke-miterlimit: 10;
      }

      .cls-2, .cls-4, .cls-5 {
        fill: none;
      }

      .cls-6 {
        fill: #989d95;
      }

      .cls-7 {
        fill: #36575c;
      }

      .cls-8 {
        fill: #fff;
      }

      .cls-3 {
        fill: #81928d;
        stroke: #81928d;
      }

      .cls-3, .cls-4, .cls-9 {
        opacity: .5;
      }

      .cls-4 {
        stroke: #989d95;
        stroke-width: .6px;
      }

      .cls-5 {
        stroke: #36575c;
        stroke-width: 3.9px;
      }

      .cls-10 {
        fill: #959a8e;
      }
    </style>
  </defs>
  <!-- Generator: Adobe Illustrator 28.6.0, SVG Export Plug-In . SVG Version: 1.2.0 Build 709)  -->
  <g>
    <g id="Layer_2">
      <rect class="cls-8" x=".3" y="0" width="593.5" height="181.1"/>
      <g id="Layer_1-2">
        <g>
          <g>
            <path class="cls-7" d="M277,104.1c0-2.9-.1-4.1-.2-4.5.2,0,.6,0,.9,0,.5,0,1.6,0,2.7,0,2.3,0,4.8.3,6.6,1.9.9.8,1.7,2.1,1.7,4s-.9,3.4-1.8,4.3c-.9.8-2.5,1.8-5.6,1.8s-1.4,0-2,0c-.9,0-1.6-.2-2.4-.1,0-.6.1-2.1.1-4.4v-2.9h0ZM278.6,106.4c0,1.7,0,2.9,0,3.3,0,.4,0,.5.1.5.3.2,1.3.4,2.7.4s2.8-.3,3.8-1.1c1-.8,1.7-2.1,1.7-3.8s-.3-2.5-1.2-3.5c-1.2-1.3-3.2-1.8-5.4-1.8s-1.3,0-1.6.1c0,0,0,0,0,.1,0,.3,0,1.7,0,3.3v2.3h0Z"/>
            <path class="cls-7" d="M297.6,104.1c0-2.5,0-4.1-.2-4.5.2,0,.7,0,1.1,0h3.9c.4,0,1.1,0,1.4,0,0,.3-.1.8-.1,1.4-.2-.1-.6-.2-1.5-.3-.6,0-1.6,0-3,0s0,0,0,0v3.9c0,0,0,0,0,0,.3,0,2.3,0,2.8,0,.9,0,1.3,0,1.5-.1,0,.4-.2,1.1-.2,1.4-.2-.1-.5-.2-1.2-.2-.6,0-2.6,0-2.9,0s0,0,0,0v1c0,3,0,3.5.1,3.5,0,0,.2,0,.4,0,.4,0,1,0,1.7,0,1.6,0,2.4-.1,2.9-.3-.1.3-.3,1-.4,1.3,0,0-.3,0-.9,0-2.4,0-3.7,0-4.5,0s-1,0-1.2,0c0-.6.2-2.3.2-4.5v-2.8h0Z"/>
            <path class="cls-7" d="M311.7,109.3c.5.6,1.6,1.3,3,1.3s2.4-.9,2.4-2-.4-1.5-1.8-2.4l-.9-.5c-1.8-1.1-2.3-2.1-2.3-3.2,0-1.7,1.4-3,3.9-3s1.3,0,1.7.1c.5,0,.8.1.9.1,0,.2-.2,1-.2,1.6-.3-.4-1.2-.9-2.6-.9s-2.2.7-2.2,1.7.2,1.4,1.8,2.3l.9.5c2.1,1.2,2.5,2.2,2.5,3.4s-.4,1.9-1.6,2.7c-.8.5-1.8.6-2.7.6s-2.3-.3-2.9-.6c0-.2.2-1.2.1-1.7h0Z"/>
            <path class="cls-7" d="M327.6,104.1c0-2.2,0-4.1-.2-4.5.2,0,.6,0,.8,0,.6,0,1,0,1.1,0,0,.6-.1,2.3-.1,4.5v2.8c0,2,0,4.1.2,4.5-.2,0-.5,0-.8,0s-.9,0-1.1,0c0-.6.1-2.5.1-4.5,0,0,0-2.8,0-2.8Z"/>
            <path class="cls-7" d="M350.2,109.8v1.2c-1.1.5-2.9.7-4.4.7-2.3,0-4.5-.7-5.8-2-1-.9-1.7-2.4-1.7-4.1,0-2.6,1.4-4.1,2.7-4.9,1.7-1.1,3.8-1.2,5.1-1.2,2.2,0,3.9.6,4.3.6,0,.3-.2,1.1-.2,1.7-.4-.5-2-1.3-4.6-1.3s-2.7.3-3.7,1.1c-.9.8-1.7,2-1.7,3.6,0,3.3,2.2,5.5,6.1,5.5s1.8,0,2.3-.4c0,0,0-.1,0-.4v-1.9c0-.9-.1-2-.2-2.3.2,0,.6,0,.9,0,.5,0,.8,0,1,0,0,.4-.1,1.6-.1,2.7v1.5h0Z"/>
            <path class="cls-7" d="M360.6,111.4c-.2,0-.8,0-.9,0,.1-1.3.2-8.3.2-11.1s0-.9.2-.9.2.1.6.4c1.7,1.6,7.5,7.6,9.1,8.8,0-2.3,0-7.3-.2-9,.1,0,.5,0,.7,0,.4,0,.9,0,1,0-.1.9-.2,4.9-.2,7.9,0,1,0,2.5,0,3.2s0,.9-.1.9-.4-.2-1.5-1.2c-1.5-1.3-6.5-6.6-8.2-8.2,0,3.3,0,7.9.2,9.1-.3,0-.5,0-.8,0h0Z"/>
            <path class="cls-7" d="M379.9,109.3c.5.6,1.6,1.3,3,1.3s2.4-.9,2.4-2-.4-1.5-1.8-2.4l-.9-.5c-1.8-1.1-2.3-2.1-2.3-3.2,0-1.7,1.4-3,3.9-3s1.3,0,1.7.1c.5,0,.8.1.9.1,0,.2-.2,1-.2,1.6-.3-.4-1.2-.9-2.6-.9s-2.2.7-2.2,1.7.2,1.4,1.8,2.3l.9.5c2.1,1.2,2.5,2.2,2.5,3.4s-.4,1.9-1.6,2.7c-.8.5-1.8.6-2.7.6s-2.3-.3-2.9-.6c0-.2.2-1.2.1-1.7h0Z"/>
          </g>
          <g>
            <path class="cls-7" d="M334.6,68.5c.6,0,1.2-.1,1.8-.1s.3,0,.4,0c-4.6-10.4-9.5-21.1-9.9-22.1-.5-1.3-.7-1.8-1-1.8s-.5.7-.9,1.8l-11.3,27.8c-1.6,4-3.4,8.6-4.8,11.4.3,0,1.2-.1,1.5-.1.6,0,.7,0,1,0,.7-2.5,4.3-11.4,6.3-16.9,0-.1,0-.2.2-.2h16.4c0,0,.1,0,.2,0h0ZM333.9,67h-15.3c-.1,0-.2,0-.1-.2l7.4-18.5,8.1,18.5c0,.1,0,.2-.2.2h0Z"/>
            <path class="cls-7" d="M332.9,88.1c1.2,1.4,4.5,2.7,8.8,2.7,6.5,0,9.5-3.2,9.5-7.1s-1.5-5.4-7-8.1l-2.8-1.4c-5.6-2.8-7.2-5.4-7.2-8.2s3.9-7.4,11.1-7.4,4,.3,5.2.5c.8.1,1.7.3,2.1.3-.2.4-.5,1.8-.5,2.2-1-1-3.2-2-7.4-2s-8.5,2.3-8.5,5.9.9,4.7,7.2,7.9l2.5,1.2c6.6,3.3,7.3,6,7.3,8.8s-.5,4.6-4.3,6.7c-2.1,1.2-4.8,1.8-8,1.8s-6.9-.8-8.4-1.7c.1-.4.3-1.9.3-2.2h0Z"/>
            <path class="cls-7" d="M343.6,78.3c1.2,1.3,1.3,2.7,4,3.5,2.8.8,5.1.6,5.1.6,0,0-.5-.9-3.3-2.7-2.8-1.7-5.8-1.4-5.8-1.4Z"/>
            <path class="cls-7" d="M345.1,69.1c1.5,1.1,3.4,1.1,3.9,3.8.5,2.7-.5,5-.5,5,0,0-1.1-.4-2.8-3.2s-.6-5.6-.6-5.6h0Z"/>
            <path class="cls-7" d="M332.8,73.4c1.5,1.1,1.9,2.8,5,2.8,3.1,0,5.4-1.1,5.4-1.1,0,0-.7-.9-4.1-2-3.4-1.1-6.3.3-6.3.3h0Z"/>
          </g>
        </g>
      </g>
      <g class="cls-9">
        <path class="cls-1" d="M83.9,59.6c-.7,12.8,8.1,25.5-7.6,36.6-15.7,11.1-35.1,11.7-35.1,11.7,0,0-2.3-8.7,7.9-28,10.2-19.3,34.8-20.4,34.8-20.4Z"/>
        <path class="cls-1" d="M12,59.7c-2.3,12.7-13.1,22.1-1.6,38.2,11.5,16.1,28.8,23.3,28.8,23.3,0,0,4-7.7-.7-29.9-4.7-22.2-26.5-31.6-26.5-31.6Z"/>
        <path class="cls-1" d="M65.1,45.7c15.2-2.8,31.9,6,42.8-14.5,10.9-20.5,8.6-43.9,8.6-43.9,0,0-10.8-1.5-32.3,13.6-21.5,15.1-19,44.8-19,44.8Z"/>
        <path class="cls-1" d="M54.6,166.2c15.2-2.8,31.9,6,42.8-14.5,10.9-20.5,8.6-43.9,8.6-43.9,0,0-10.8-1.5-32.3,13.6-21.5,15.1-19,44.8-19,44.8Z"/>
        <path class="cls-1" d="M66.3,35.5c-14.6-.6-28.8,9.7-42-7.8C11.1,10.2,9.7-11.8,9.7-11.8c0,0,9.8-2.7,32.1,8.4,22.3,11.1,24.6,38.9,24.6,38.9Z"/>
        <path class="cls-1" d="M56.3,180.3c-14.3-1-27.8,8.3-41.3-8.8C1.5,154.4-.7,133.4-.7,133.4c0,0,9.5-2.3,31.7,9.1,22.2,11.3,25.3,37.9,25.3,37.9Z"/>
        <path class="cls-2" d="M49.5-7.1c12.2,14,17,35.1,12.3,53.7-2.7,10.8-8.3,20.4-13.1,30.4-4.8,9.9-8.9,20.8-8.3,32,.6,11.5,6.1,21.9,10.4,32.4,4.2,10.6,7.2,22.9,2.9,33.4"/>
        <path class="cls-4" d="M50.1-7.1c12.2,14,17,35.1,12.3,53.7-2.7,10.8-8.3,20.4-13.1,30.4-4.8,9.9-8.9,20.8-8.3,32,.6,11.5,6.1,21.9,10.4,32.4,4.2,10.6,7.2,22.9,2.9,33.4"/>
        <g class="cls-9">
          <path class="cls-10" d="M41.1,100.3c-2.4-14.7-10-31.2-25.3-35.9-5.8,6-5.5,17-3.8,25.2,2.7,13.8,12,29.8,27.7,30,0,0,.2,0,.2,0,0,0,.1,0,.1,0h0s0,0-.1.1c0,0,0,0,0,0,0,0,0-.3,0-.4-.9-8.1-4.4-28.9-14.2-30.1,9.8.9,14,22.5,14.6,30.6-.2.2-.2,0-.2.1h0s-.1,0-.1,0c0,0-.2,0-.2,0-20.6-.6-30.5-25.9-29-43.7.5-4.5,1.6-9.3,5.2-12.3,3.8,1,7.3,3.1,10.2,5.7,9,7.6,13.3,19.3,15.1,30.7h0Z"/>
        </g>
        <g class="cls-9">
          <path class="cls-10" d="M63.6,36.4c-.2-20.5,18.1-34.6,34.8-43,5.9-2.9,11.9-5.5,18.2-7.4,2.2,5.5,2,11.6,1.2,17.4-2.9,22.1-19.3,47.7-44.6,43.2-1.7-.3-3.4-.7-5-1.2-.2,0-.2-.2-.2-.2,0-4,2-7.9,3.9-11.4,5.9-10,15.6-17.2,25.9-22.1-13,6.5-26.4,17.3-29.4,32.2,0,.3,0,.7,0,1,0,0,0,.2,0,0,1.6.5,3.3.9,5,1.1,25.1,4.4,41-21.1,44-42.9.7-5.6,1-11.6-1.1-16.9,0,0,.3.1.3.1-6.2,1.9-12.1,4.4-17.9,7.3-16.6,8.3-34.9,22.3-34.9,42.6h0Z"/>
        </g>
        <g class="cls-9">
          <path class="cls-10" d="M55.2,156.8c-.2-19.7,17.4-33.3,33.5-41.4,5.6-2.8,11.5-5.3,17.5-7.1,2.1,5.3,1.9,11.2,1.2,16.7-2.8,21.3-18.5,46-42.9,41.6-1.6-.3-3.2-.7-4.8-1.1-.1,0-.2-.2-.2-.2,0-3.9,1.9-7.6,3.7-10.9,5.7-9.6,15-16.5,24.9-21.3-12.6,6.3-25.4,16.6-28.3,31,0,.3,0,.7,0,1,0,0,0,.2,0,0,1.6.5,3.2.8,4.8,1.1,24.2,4.3,39.4-20.3,42.3-41.3.7-5.4,1-11.1-1-16.3,0,0,.3.1.3.1-5.9,1.8-11.7,4.2-17.3,7-16,8-33.6,21.4-33.6,41.1h0Z"/>
        </g>
        <g class="cls-9">
          <path class="cls-10" d="M42.4,99.7c-.4-16.1,13.9-27.4,27.1-34.1,4.6-2.3,9.4-4.3,14.4-5.9,1.8,4.4,1.6,9.2,1.1,13.8-2.4,19.5-17,40.6-39,33.3-.2-.3,0-.7,0-1.1.4-2.8,1.6-5.5,3-8,4.6-8,12.2-13.7,20.4-17.6-10.3,5.2-20.7,13.7-23,25.6,0,.3,0,.6,0,.8-.1,0,0,0,0,0,.1,0,.5.1.6.2,21.5,6.4,35.2-14.5,37.6-33.3.5-4.4.7-9.1-.9-13.3,0,0,.3.1.3.1-4.8,1.5-9.6,3.4-14.1,5.7-13.1,6.6-27.4,17.7-27.3,33.7h0Z"/>
        </g>
        <g class="cls-9">
          <path class="cls-10" d="M56.1,10.8C44.2-7.1,24.1-18.6,2.8-10.3c0,0,.1-.3.1-.3C9.3,2.1,15.4,15,24.6,25.8c10,11.9,23,16.5,37.7,10.1,0,0,1.9-.9,1.9-.9h.2c0-.1,0-.1,0-.1,0,0,0,0,0,0,0,0,0,.2,0,.1,0-.3-.6-1.1-.8-1.5C57.4,23.5,42.3,2.8,28.5,7.4c13.9-4.7,29.1,15.8,35.4,26.1.3.5.6,1,.8,1.6,0,0,0,.1,0,.2,0,0,0,0,0,0,0,0,0,0,0,0,0,0-.2.1-.2.1l-1.9.9c-18.7,8.2-33-1.4-43.5-16.8C12.5,10.1,7.5-.2,2.5-10.4c0,0,0-.2,0-.2,0,0,.2,0,.2,0,21.7-8.3,41.6,3.2,53.5,21.5h0Z"/>
        </g>
        <g class="cls-9">
          <path class="cls-6" d="M47.5,157.6c-11.9-17.9-32-29.4-53.3-21.1,0,0,.1-.3.1-.3,6.3,12.6,12.4,25.6,21.7,36.4,10,11.9,23,16.5,37.7,10.1,0,0,1.9-.9,1.9-.9h.2c0-.1,0-.1,0-.1,0,0,0,0,0,0,0,0,0,.2,0,.1,0-.3-.6-1.1-.8-1.5-6.3-10.2-21.4-30.9-35.1-26.3,13.9-4.7,29.1,15.8,35.4,26.1.3.5.6,1,.8,1.6,0,0,0,.1,0,.2,0,0,0,0,0,0,0,0,0,0,0,0h-.2c0,.1-1.9,1-1.9,1-18.7,8.2-33-1.4-43.5-16.8-6.5-9.4-11.4-19.7-16.4-29.8,0,0,0-.2,0-.2,0,0,.2,0,.2,0,21.7-8.3,41.6,3.2,53.5,21.5h0Z"/>
        </g>
      </g>
      <g>
        <path class="cls-3" d="M155.9,126.8c0-.9.5-1.7.6-1.7s.1,0,.1,0-.2.3-.2.9.5.6.5,1.1-.2.5-.4.5-.6-.4-.6-.9ZM157.2,126.8c0-.9.5-1.7.6-1.7s.1,0,.1,0-.2.3-.2.9.5.6.5,1.1-.2.5-.4.5-.6-.4-.6-.9Z"/>
        <path class="cls-3" d="M164.1,127.4c-.1,0-.2,0-.3-.2,0-.1-.3-.5-.8-.5-1.5,0-1.8,2.3-2.2,4.7-.3,1.8-.4,2.9-.8,3.7.3,0,.6,0,.9,0,3.3,0,3.9.7,3.9,1s-.1.3-.3.3-.1,0-.4-.2c-.3-.2-.8-.6-3.1-.6s-.9,0-1.3,0c-.5.9-1.3,1.6-2.2,1.6s-.8-.3-.8-.6c0-.7,1.2-1.2,2.6-1.4.4-.8.5-2,.8-3.9.4-2.4.7-5.1,2.8-5.1s1.4.7,1.4.9-.1.3-.3.3ZM159.1,135.7c-1,.2-1.7.4-1.7.8s0,.1.2.1c.6,0,1.2-.4,1.5-1Z"/>
        <path class="cls-3" d="M166.1,135.2c.7,0,1.4-1.6,1.6-2.1,0,0,.1-.2.2-.2s.2,0,.2.2,0,0,0,.2c-.3.6-1,2.4-2.1,2.4s-1.2-.6-1.2-2,.1-1.9.2-2.3c0-.2.2-.5.4-.5s.4.1.4.3-.1.3-.2.6c0,.3-.2.8-.2,1.8s.3,1.5.7,1.5ZM166.3,128.2c.2,0,.4.2.4.4s-.2.5-.5.5-.4-.2-.4-.4.2-.6.5-.6Z"/>
        <path class="cls-3" d="M168.4,133.4c0,.8,0,.8,0,1.2.5-1.8,1.9-4,3-4s.9.3.9.9c0,1-1.1,2.2-2.3,2.6.3.4.7.9,1.6.9s.9-.1,1.3-.4c0-.2,0-.4,0-.6,0-1.7,1.2-3.1,2-3.1s.8.3.8.8c0,.7-.9,2.2-2.1,3.1.2.5.7.8,1.3.8,1.4,0,2.4-2,2.5-2.4,0-.2.2-.2.3-.2s.2,0,.2.2,0,.2,0,.3c-.2.4-1.3,2.6-3.1,2.6s-1.3-.3-1.7-.9c-.5.3-1,.5-1.5.5-1.1,0-1.8-.6-2.1-1.1,0-.2-.1-.2-.1-.3,0-.2,0-.2.2-.3,1.1-.3,2.2-1.6,2.2-2.3s0-.4-.3-.4c-.9,0-2.3,2.4-2.7,4.5,0,.4-.2.5-.4.5s-.2,0-.3-.2c-.2-.8-.3-2.1-.3-3.2,0-4.2,1.2-6.6,2.8-6.6s.9.4.9,1.1c0,1.3-1.3,3.7-3.1,6.2ZM168.4,132.6c1.4-2.1,2.5-4.3,2.5-5.4s-.2-.6-.4-.6c-1.1,0-2,2.4-2.1,6ZM173.4,134.3c1-.8,1.6-2.1,1.6-2.6s-.1-.3-.2-.3c-.5,0-1.4,1.2-1.4,2.6s0,.2,0,.3Z"/>
        <path class="cls-3" d="M181.6,135.9c-.5,0-.9-.3-.9-1.1,0-1.9,1.8-3.8,3.2-3.8s.8.3.8.5c.1,0,.3,0,.3.3s-.4,1-.4,1.7.1,1,.5,1c.5,0,1.2-1.3,1.2-1.3,0-.1.1-.2.2-.2s.2,0,.2.2,0,.2,0,.2c0,0-.8,1.6-1.7,1.6s-.9-1.3-1-1.3-1.3,2.3-2.4,2.3ZM183.5,133.1c.3-.5.5-1.3.8-1.4,0-.1-.2-.2-.5-.2-.9,0-2.6,1.7-2.6,3.3s.1.6.4.6c.5,0,1.1-1,1.8-2.3Z"/>
        <path class="cls-3" d="M191.5,127.4c.1,0,.3,0,.3.3-.1,1-.4,1.9-.6,2.7v.6c.4-.2,1-.3,1.4-.3.8,0,1,.3,1,.9s-.2,1.1-.2,2,.3,1.5.7,1.5c.7,0,1.4-1.6,1.6-2.1,0-.1.1-.2.2-.2s.2,0,.2.2,0,.2,0,.2c-.3.6-1,2.4-2,2.4s-1.2-.5-1.2-2,.1-1.2.1-1.9,0-.6-.4-.6c-.5,0-1,.2-1.6.4-.2.9-.3,1.7-.3,2.5,0,2,.6,2.5.6,2.5,0,0,.1.2.1.3,0,.1-.1.3-.3.3,0,0-.2,0-.2,0,0,0-.8-.6-.8-2.9s.1-1.6.3-2.4c-.2,0-.3,0-.5,0-.6,0-1-.3-1-.5s.3-.3.5,0c0,0,0,.1.4.1s.4,0,.6,0l.3-1.1c.2-.8.4-1.5.5-2.3,0-.2.2-.3.3-.3ZM193.9,128.2c.2,0,.4.2.4.4s-.2.5-.5.5-.4-.2-.4-.4.2-.6.5-.6Z"/>
        <path class="cls-3" d="M196.2,134c.6-1.3,1.4-2.6,2.3-2.6s.8.4.9,1.2c.2,2,.3,2.5.9,2.5s1.2-1.5,1.4-1.9c0-.2.2-.3.3-.3s.2,0,.2.2,0,.2,0,.3c0,.3-.8,2.3-2,2.3s-1.1-.9-1.3-2.9c0-.5-.1-.9-.4-.9-.6,0-1.5,1.6-2,2.8-.3.7-.4.9-.4,1.2,0,.2-.1.3-.3.3s-.3-.1-.3-.3,0-.4.2-.7c.3-1.6.3-2.2.3-2.8s0-.6-.1-.7c0,0,0-.1,0-.2,0-.1.1-.3.3-.3s.2,0,.3.2c0,0,.1.4.1,1s0,.7,0,1.1c0,.2,0,.4,0,.5Z"/>
        <path class="cls-3" d="M202.6,135.8c-.4,0-1.1-.3-1.1-1.3s.6-2.7,1.2-3.6c.1-.3.2-.4.4-.4s.3.1.3.3,0,.2-.2.3c-.6.9-1.1,2.3-1.1,3.4s.3.8.5.8c.7,0,1.9-2.2,2.3-3.4.1-.4.3-.5.5-.5s.4,0,.5.4c.2.5.3,1.1.5,2.2l1.2-.8c0,0,.2,0,.3,0,.1,0,.2.1.2.2s0,.2-.2.2c-.5.2-.9.5-1.3.8,0,0,0,.1,0,.2,0,.5,0,1,0,1.6,0,3.1-1.3,4.3-2.4,4.3s-1.5-.6-1.5-1.5c0-1.4,1.6-3.2,3.1-4.6,0,0,0,0,0-.2,0-.6-.2-1.2-.4-1.9-.6,1.5-1.8,3.6-2.9,3.6ZM203.2,138.9c0,.6.3,1.1.9,1.1.9,0,1.8-1,1.8-3.8s0-.8,0-1.3c-1.2,1.1-2.7,2.6-2.7,4Z"/>
        <path class="cls-3" d="M216.1,134.3c-.7.3-.9.4-1.1.5,0,0,0,.1,0,.2,0,.8-.8,1.6-1.7,1.6s-1-.4-1-.8.7-.8,1.8-1.2c-.2,0-.5-.1-.8-.2-.8-.1-1.7-.3-1.7-1.1,0-1.2,1.7-2.5,2.6-2.5s.8.3.8.6c0,.6-.7,1.3-1,1.3s-.3-.1-.3-.3,0-.2.2-.3c.2-.2.4-.4.4-.8s0-.1-.2-.1c-.7,0-2.1,1.1-2.1,2s.6.6,1.3.7c.5,0,1,.2,1.3.4l1.3-.5c0-1.7,1.2-3,2-3s.8.3.8.8c0,.9-1,1.7-2.2,2.3,0,1,.6,1.5,1.4,1.5s1.3-.3,1.9-.7c0-.3-.1-.5-.1-.9,0-1.7,1.1-3,1.7-3s.7.3.7.8c0,.9-.7,2.2-1.7,3.1.2.4.7.6,1.2.6,1.4,0,2.4-1.9,2.5-2.3,0-.2.2-.2.3-.2s.2,0,.2.2,0,.2,0,.3c-.2.4-1.3,2.5-3,2.5s-1.2-.3-1.6-.8c-.6.5-1.4.8-2.1.8s-1.7-.6-1.9-1.7ZM214.4,134.9c-1,.4-1.6.7-1.6.9s.1.3.4.3c.6,0,1.1-.6,1.1-1.2ZM216.6,133.5c1-.6,1.7-1.2,1.7-1.9s0-.3-.2-.3c-.5,0-1.3.9-1.4,2.1ZM220.3,134.3c.8-.8,1.3-1.9,1.3-2.6s0-.4-.2-.4c-.3,0-1.2,1.1-1.2,2.5s0,.3,0,.4Z"/>
        <path class="cls-3" d="M227.2,131.3s0-.5,0-1.2c0-3.2.8-3.9,1.5-3.9s.8.4.8,1.1c0,1.7-1.5,5-1.5,5.5,0,1.1.5,2.5.9,2.5.7,0,1.4-1.6,1.6-2.1,0-.1.1-.2.2-.2.1,0,.2,0,.2.2s0,.1,0,.3c-.2.5-.9,2.2-2,2.2s-1.2-1.8-1.3-1.8c-.2,0-1,2-2.3,2s-1.1-.4-1.1-1.3c0-2,1.7-3.5,2.7-3.5s.5.1.5.1ZM227.3,132.4c0-.1,0-.3,0-.5-.3,0-.3-.3-.6-.3-.7,0-1.9,1.2-1.9,3s.2.7.5.7c.6,0,1.4-1,2-2.4,0-.1,0-.3,0-.7ZM227.8,131.5c.6-1.8,1.1-3.7,1.1-4.4s0-.5-.2-.5c-.4,0-.9,1-.9,5h0Z"/>
        <path class="cls-3" d="M240.9,132.9c.1,0,.2,0,.2.2s0,.2,0,.2c0,0-1.1,2.3-2.2,2.3s-.9-.4-.9-.9c0-1.1.8-2.2.8-3s0-.3-.3-.3c-.6,0-2,1.7-2.9,4-.1.4-.1.8-.6.8s-.4-.3-.5-.5c-.2-.6-.5-1.6-.5-3,0-4.2,2-7,3.5-7s1.1.4,1.1,1.2c0,1.5-2.2,4.3-3.8,6.2-.1.2-.2.3-.2.6,0,.7.3,1.6.3,1.6s0,0,.1-.2c.9-2.5,2.5-4.2,3.4-4.2s.8.3.8.8c0,1-.8,1.9-.8,3s.1.4.3.4c.5,0,1.7-2.1,1.7-2.1,0,0,0-.2.2-.2ZM234.9,132.6c1.3-1.8,3.4-4.3,3.4-5.6s-.2-.8-.6-.8c-1.1,0-2.9,2.5-2.9,6.4s0,0,0,0Z"/>
        <path class="cls-3" d="M243.9,131.2c.1.2.4.6.4,1.7,0,1.9-1.3,3.3-2.5,3.3s-1.4-.6-1.4-1.6c0-1.5,1.1-2.5,1.3-2.7.2-.1.2-.1.3-.1s.2.1.2.3,0,.2-.2.3c-.3.2-1.1,1-1.1,2.3s.3,1.1.9,1.1c.9,0,1.8-1.2,1.8-2.8s-.4-1.5-.7-1.7c0,0-.2-.2-.2-.3,0-.2.2-.3.4-.3s.3.1,1,.2c1.5,0,2,.3,2.3,2,.7-1.1,1.5-1.9,2.2-1.9s1.2.7,1.2,1.8c0,1.6-.9,3-1.9,3s-.7-.3-.8-.4c0,0,0-.1,0-.2,0-.1.1-.3.3-.3s.1,0,.2.1c0,0,.2.3.5.3.7,0,1.3-1.1,1.3-2.5s-.3-1.2-.7-1.2-1.3.9-1.9,2.1c.2,1.1.3,2.5.3,3.9,0,2.1-.6,3.3-1.5,3.3s-1.1-.6-1.1-1.5c0-1.5.7-3.8,1.7-5.6-.2-2.3-.6-2.2-2.3-2.3ZM246.3,134.4c-.7,1.6-1.2,3.5-1.2,4.7s.2,1,.5,1c.6,0,.9-1,.9-2.7s0-2.1-.2-3Z"/>
        <path class="cls-3" d="M252.4,135.2c.7,0,1.4-1.6,1.6-2.1,0,0,.1-.2.2-.2s.2,0,.2.2,0,0,0,.2c-.3.6-1,2.4-2.1,2.4s-1.2-.6-1.2-2,.1-1.9.2-2.3c0-.2.2-.5.4-.5s.4.1.4.3-.1.3-.2.6c0,.3-.2.8-.2,1.8s.3,1.5.7,1.5ZM252.6,128.2c.2,0,.4.2.4.4s-.2.5-.5.5-.4-.2-.4-.4.2-.6.5-.6Z"/>
        <path class="cls-3" d="M254.5,134c.6-1.3,1.4-2.6,2.3-2.6s.8.4.9,1.2c.2,2,.3,2.5.9,2.5s1.2-1.5,1.4-1.9c0-.2.2-.3.3-.3s.2,0,.2.2,0,.2,0,.3c0,.3-.8,2.3-2,2.3s-1.1-.9-1.3-2.9c0-.5-.1-.9-.4-.9-.6,0-1.5,1.6-2,2.8-.3.7-.4.9-.4,1.2,0,.2-.1.3-.3.3s-.3-.1-.3-.3,0-.4.2-.7c.3-1.6.3-2.2.3-2.8s0-.6-.1-.7c0,0,0-.1,0-.2,0-.1.1-.3.3-.3s.2,0,.3.2c0,0,.1.4.1,1s0,.7,0,1.1c0,.2,0,.4,0,.5Z"/>
        <path class="cls-3" d="M265.7,133.1c0,0,.2,0,.2.2s0,.2-.2.2c-.4.2-1.1.5-1.4.8,0,0,0,0,0,.2,0,0,0,1,0,1.4,0,2.7-1.4,3.9-2.4,3.9s-1.3-.5-1.3-1.3c0-1.3,1.4-3,2.9-4.4,0,0,0,0,0-.1,0-.5-.3-1.7-.4-1.7s-1.1,3.6-2.6,3.6-1-.5-1-1.4c0-1.7,1.4-3.7,2.9-3.7s.4.1.4.1c0-.3-.1-.5-.1-.7s.2-.4.4-.4.4,0,.4.4c0,.5.6,3.4.6,3.4.5-.3,1-.5,1.3-.7,0,0,0,0,.2,0ZM262.8,131.7c-.3,0-.2-.2-.5-.2-1,0-2,1.7-2,3.3s.2.8.4.8c.6,0,1.5-1.6,2.1-3.9ZM261.2,138.6c0,.6.3.9.8.9.8,0,1.8-1.1,1.8-3.4s0-1.3,0-1.3c-1.3,1.2-2.5,2.7-2.5,3.8Z"/>
        <path class="cls-3" d="M270.3,127.9c.2,0,.3.2.3.3,0,.4-.2.9-.2,1.3-.1.6-.3,1.3-.4,2,1.1.2,2.1.3,2.8.3s.3.2.3.3-.3.3-.4.4c-.4.4-.8,1.1-.8,2s.3,1.1.9,1.1c.9,0,1.8-1.7,1.8-3.2s-.3-1.2-1-1.2-.9.2-.9.2c0,0,0,0-.1,0-.1,0-.2-.1-.2-.2s0-.2.1-.2c0,0,.5-.4,1.1-.4,1,0,1.6.7,1.6,1.7,0,1.9-1.3,3.8-2.5,3.8s-1.4-.6-1.4-1.6.5-1.8.9-2.3c-.6,0-1.5-.1-2.4-.3,0,.5,0,1,0,1.5,0,2.2.8,3,.8,3,0,0,.1.2.1.3,0,.2-.1.3-.3.3s-.2-.1-.2-.1c0,0-1-.9-1-3.4s0-1.1,0-1.6c-.4,0-.7-.2-1-.3-.2,0-.2-.2-.2-.3,0-.1,0-.2.2-.2s.2,0,.3,0c.3,0,.6.2.8.2.1-1.2.4-2.3.6-3.2,0-.1.1-.3.3-.3Z"/>
        <path class="cls-3" d="M283.7,130.7c.5,0,1.1.4,1.1,1.3,0,1.7-1.4,3.5-2.5,3.5s-1-.3-1-.6.2-.4.3-.4c.3,0,.4.4.7.4.9,0,1.8-1.6,1.8-3.2s-.2-.6-.4-.6c-.8,0-2,1.5-2.7,3.4-.1.3-.1.6-.2.9,0,.2-.2.3-.4.3s-.3-.2-.4-.4c-.1-.6-.2-1.6-.2-2.7,0-4.3,1.4-6.6,2.8-6.6s.9.4.9,1.1c0,1.6-1.5,3.8-3,5.9,0,.4,0,.8,0,1.2.6-1.6,2-3.6,3.2-3.6ZM282.9,127.2c0-.3-.1-.5-.3-.5-.8,0-2.1,2.2-2.1,5.7,1.2-1.8,2.5-4,2.5-5.3Z"/>
        <path class="cls-3" d="M286.2,133.7c0,.8.4,1.5.7,1.5.7,0,1.3-1.3,1.6-2,0-.2.1-.2.2-.2s.2,0,.2.2,0,.1,0,.2c-.3.7-1.1,2.3-2,2.3s-1.4-.8-1.4-3c0-4.2,1.3-7.2,2.9-7.2s.9.3.9,1c0,1.5-1.4,4.3-3,6.8,0,0,0,.1,0,.4ZM286.2,132.6c1.3-2,2.5-4.7,2.5-6.1s-.1-.5-.4-.5c-1,0-2.3,3-2.3,6.6s0,0,0,0Z"/>
        <path class="cls-3" d="M294.9,131.8c.2,0,.3.1.3.3s0,.2-.1.2c-.3.3-1.2,1-1.2,2.3s.3,1.1.9,1.1c.9,0,1.8-1.7,1.8-3.3s-.3-1.1-.9-1.1-.6.3-.8.3-.3-.1-.3-.2,0-.2.2-.3c.1,0,.5-.3.9-.3.9,0,1.5.6,1.5,1.7,0,2-1.3,3.8-2.5,3.8s-1.4-.5-1.4-1.6.5-1.9.9-2.3c-.8,0-1.5-.4-2.1-.6-.3,0-.5-.2-.6-.2.1.1.6.6.6,1.6,0,1.8-1.2,3.1-2.4,3.1s-1.4-.6-1.4-1.6.7-2.1,1.1-2.5.3-.3.4-.3.3.1.3.3,0,.2-.1.2c-.3.2-1.1,1-1.1,2.3s.3,1.1.9,1.1c.9,0,1.7-1.3,1.7-2.6s-.5-1.4-.8-1.7c-.1,0-.2-.2-.2-.3,0-.3.2-.4.4-.4s.8.2,1.4.4c.7.3,1.7.6,2.4.7,0,0,.1,0,.2,0Z"/>
        <path class="cls-3" d="M303.6,131.6c.5,0,.8.2.8.9s-.3,1.3-.3,2,.1.8.5.8c.9,0,1.5-1.5,1.7-2.1,0-.1.1-.2.3-.2s.2,0,.2.2,0,.2,0,.3c-.2.6-1,2.2-2.1,2.2s-1.1-.4-1.1-1.1.3-1.4.3-2,0-.4-.3-.4c-.5,0-1.9,2-2.2,3.4,0,.2,0,.3-.3.3s-.3-.1-.3-.3c0-1.7.7-3,.7-4s0-.3-.3-.3c-.7,0-1.4,1.3-2.1,3.1-.4,1-.5,1.7-.5,1.9s-.1.3-.3.3-.3-.1-.3-.3.2-1.3.2-2.2,0-1.3-.2-1.9c0-.1-.1-.3-.1-.4,0-.2.2-.3.4-.3s.3.2.3.4c.1.5.2,1.1.2,1.8.6-1.3,1.4-2.7,2.4-2.7s.8.5.8.9c0,.7-.4,1.7-.5,2.3.5-1.1,1.4-2.2,2.1-2.2Z"/>
        <path class="cls-3" d="M315.5,132.6c.2,0,.3.2.3.3s0,.1-.1.2c-.2.1-.8.6-.8,1.7s.3,1,.8,1c.8,0,1.7-1.1,1.7-2.5s-.3-1.5-1.1-1.5-.7.2-.7.2c0,0-.1,0-.2,0-.1,0-.2,0-.2-.2s0-.2.1-.2c0,0,.4-.4,1-.4,1,0,1.6.7,1.6,2s-1.3,3-2.3,3-1.3-.5-1.3-1.5,0-.9.2-1.2c-.5.3-.9.7-1.3,1,.1.1.2.4.2.6,0,.8-.9,1.5-1.5,1.5s-.6-.2-.6-.4c0-.4.4-1,1.1-1.7-.3-.2-.7-.3-1.1-.4-.7-.2-1.4-.3-1.4-.9,0-1.1,1.7-2.4,2.6-2.4s.8.3.8.6c0,.6-.7,1.3-1,1.3s-.3-.1-.3-.3,0-.2.2-.3c.2-.2.4-.4.4-.8s0-.2-.2-.2c-.7,0-2,1.1-2,1.8s.4.4.9.5c.5.1,1.1.3,1.5.6.5-.5,1.3-1.1,2-1.4.1,0,.4-.2.5-.2ZM311.9,136.2c0,0,0,0,.1,0,.3,0,.9-.6.9-1.1s-.1-.3-.1-.3c-.6.6-.9,1-.9,1.3Z"/>
        <path class="cls-3" d="M324.1,134.5c0-.7.5-1.6.5-2.3s0-.3-.3-.3c-.7,0-1.8,2.3-2.2,3.6-.1.4-.5.3-.5,0,0-1.1,0-2,.1-2.7,0-.5,0-.9,0-1.3s0-.3-.3-.3c-.6,0-.9,1.1-1.6,2.8-.4,1-.6,2-.6,2-.1.5-.6.3-.6-.1,0,0,.2-1.1.2-2,0-2-.2-2.2-.2-2.4s.1-.3.3-.3.2,0,.3.2c.3.6.3,1.9.3,1.9.5-1.4,1-2.7,2-2.7s.8.5.8.9,0,.9,0,1.4c0,.5,0,.7,0,1,.5-1.2,1.3-2.5,2.2-2.5s.8.3.8.8-.5,1.6-.5,2.4.2.6.5.6.7-.2,1-.5c0-.2-.1-.5-.1-.9,0-1.7,1.2-3,2-3s.8.3.8.8c0,.7-.9,2.2-2,3.2.2.4.6.6,1.2.6,1.4,0,2.4-1.9,2.5-2.3,0-.2.2-.2.3-.2s.2,0,.2.2,0,.2,0,.3c-.2.5-1.3,2.6-3,2.6s-1.2-.3-1.6-.8c-.5.3-.9.5-1.3.5s-1.1-.4-1.1-1.1ZM326.8,134.3c.9-.9,1.6-2.1,1.6-2.6s0-.3-.2-.3c-.5,0-1.5,1.1-1.5,2.5s0,.3,0,.4Z"/>
        <path class="cls-3" d="M333.7,131.3s0-.5,0-1.2c0-3.2.8-3.9,1.5-3.9s.8.4.8,1.1c0,1.7-1.5,5-1.5,5.5,0,1.1.5,2.5.9,2.5.7,0,1.4-1.6,1.6-2.1,0-.1.1-.2.2-.2.1,0,.2,0,.2.2s0,.1,0,.3c-.2.5-.9,2.2-2,2.2s-1.2-1.8-1.3-1.8c-.2,0-1,2-2.3,2s-1.1-.4-1.1-1.3c0-2,1.7-3.5,2.7-3.5s.5.1.5.1ZM333.7,132.4c0-.1,0-.3,0-.5-.3,0-.3-.3-.6-.3-.7,0-1.9,1.2-1.9,3s.2.7.5.7c.6,0,1.4-1,2-2.4,0-.1,0-.3,0-.7ZM334.2,131.5c.6-1.8,1.1-3.7,1.1-4.4s0-.5-.2-.5c-.4,0-.9,1-.9,5h0Z"/>
        <path class="cls-3" d="M337.5,135.9c-.5,0-.9-.3-.9-1.1,0-1.9,1.8-3.8,3.2-3.8s.8.3.8.5c.1,0,.3,0,.3.3s-.4,1-.4,1.7.1,1,.5,1c.5,0,1.2-1.3,1.2-1.3,0-.1.1-.2.2-.2s.2,0,.2.2,0,.2,0,.2c0,0-.8,1.6-1.7,1.6s-.9-1.3-1-1.3-1.3,2.3-2.4,2.3ZM339.4,133.1c.3-.5.5-1.3.8-1.4,0-.1-.2-.2-.5-.2-.9,0-2.6,1.7-2.6,3.3s.1.6.4.6c.5,0,1.1-1,1.8-2.3Z"/>
        <path class="cls-3" d="M343.1,135.8c-.4,0-1.1-.3-1.1-1.3s.6-2.7,1.2-3.6c.1-.3.2-.4.4-.4s.3.1.3.3,0,.2-.2.3c-.6.9-1.1,2.3-1.1,3.4s.3.8.5.8c.7,0,1.9-2.2,2.3-3.4.1-.4.3-.5.5-.5s.4,0,.5.4c.2.5.3,1.1.5,2.2l1.2-.8c0,0,.2,0,.3,0,.1,0,.2.1.2.2s0,.2-.2.2c-.5.2-.9.5-1.3.8,0,0,0,.1,0,.2,0,.5,0,1,0,1.6,0,3.1-1.3,4.3-2.4,4.3s-1.5-.6-1.5-1.5c0-1.4,1.6-3.2,3.1-4.6,0,0,0,0,0-.2,0-.6-.2-1.2-.4-1.9-.6,1.5-1.8,3.6-2.9,3.6ZM343.8,138.9c0,.6.3,1.1.9,1.1.9,0,1.8-1,1.8-3.8s0-.8,0-1.3c-1.2,1.1-2.7,2.6-2.7,4Z"/>
        <path class="cls-3" d="M350.1,134.9c0,1.1-.5,1.9-.7,1.9s-.1,0-.1-.1.2-.3.2-1-.5-.7-.5-1.2.2-.6.5-.6.6.4.6,1Z"/>
        <path class="cls-3" d="M356.4,135.3c1.1,0,2-1.5,2.3-2.2s.2-.2.3-.2.2,0,.2.2,0,.2,0,.3c-.4.8-1.4,2.4-3,2.4s-1.9-.5-1.9-2,1.3-2.9,2-2.9.8.3.8.9c0,.9-1,2.5-1.9,2.5s-.2,0-.2,0c.1.7.7,1,1.3,1ZM356.6,131.7c0-.2,0-.3-.3-.3-.5,0-1.3,1-1.3,2.5.8-.2,1.6-1.4,1.6-2.1Z"/>
        <path class="cls-3" d="M361.1,132.6c-.3-.3-.4-.6-.4-.9s.2-.6.5-.6.6.3.6.9,0,.3,0,.4c.3.2.6.4,1.2.5.3-1.2,1.3-2.1,1.9-2.1s.8.3.8.8c0,.8-1,1.7-2.2,1.8,0,.1,0,.3,0,.4,0,1.1.6,1.6,1.4,1.6,1.4,0,2.4-1.9,2.5-2.3,0-.2.2-.2.3-.2s.2,0,.2.2,0,.2,0,.3c-.2.5-1.3,2.6-3,2.6s-1.9-.7-1.9-2.1,0-.3,0-.5c-.5,0-.9-.2-1.3-.4-.3.8-.9,1.6-2,2.9,0,0-.2.1-.2.1-.2,0-.3-.1-.3-.4,0-1.7-.3-3.1-.5-3.9,0-.2,0-.3,0-.4,0-.2.2-.3.3-.3s.2,0,.2.2c.4,1.2.6,2.5.6,3.9.8-.9,1.3-1.8,1.5-2.5ZM363.5,133c.9,0,1.6-.7,1.6-1.3s-.1-.2-.3-.2c-.4,0-1,.7-1.3,1.6Z"/>
        <path class="cls-3" d="M370.1,130.6c.5,0,.8.3.8.6s-.1.2-.2.2c-.2,0-.3-.3-.6-.3-.7,0-1.3.9-1.7,2.2-.3,1-.5,2.2-.6,2.3,0,.2-.2.3-.3.3s-.3,0-.3-.3,0-.2,0-.4c0-.4.1-1.2.1-1.7,0-1.1-.1-1.6-.3-1.8-.2-.2-.2-.3-.2-.4,0-.2.2-.3.3-.3s.2,0,.3.2c0,.1.4.6.4,2,.3-1.4,1.1-2.5,2.1-2.5Z"/>
        <path class="cls-3" d="M372.2,135.8c-.4,0-1.1-.3-1.1-1.3s.6-2.7,1.2-3.6c.1-.3.2-.4.4-.4s.3.1.3.3,0,.2-.2.3c-.6.9-1.1,2.3-1.1,3.4s.3.8.5.8c.7,0,1.9-2.2,2.3-3.4.1-.4.3-.5.5-.5s.4,0,.5.4c.2.5.3,1.1.5,2.2l1.2-.8c0,0,.2,0,.3,0,.1,0,.2.1.2.2s0,.2-.2.2c-.5.2-.9.5-1.3.8,0,0,0,.1,0,.2,0,.5,0,1,0,1.6,0,3.1-1.3,4.3-2.4,4.3s-1.5-.6-1.5-1.5c0-1.4,1.6-3.2,3.1-4.6,0,0,0,0,0-.2,0-.6-.2-1.2-.4-1.9-.6,1.5-1.8,3.6-2.9,3.6ZM372.8,138.9c0,.6.3,1.1.9,1.1.9,0,1.8-1,1.8-3.8s0-.8,0-1.3c-1.2,1.1-2.7,2.6-2.7,4Z"/>
        <path class="cls-3" d="M383.8,135.7c-.5,0-.9-.4-.9-.9,0-1,.8-2.1.8-3s0-.3-.3-.3c-.6,0-1.6,1.5-2.3,4.4,0,.2-.2.4-.4.4s-.2,0-.4-.3c-.3-.5-.7-1.6-.7-3.5-.4.1-.8.2-1.2.2s-.3,0-.5,0c0,.2,0,.4,0,.7,0,2,.5,2.7.8,3.1,0,.1.2.2.2.3s-.1.2-.3.2-.2,0-.4-.2c-.4-.4-.9-1.4-.9-3.4s0-.5,0-.8c-.3,0-.5-.2-.8-.3-.3-.1-.3-.2-.3-.3,0-.2.1-.3.3-.3s.1,0,.2,0c.2,0,.4.2.7.2.1-1.5.4-2.9.7-4,0-.1.1-.2.3-.2.2,0,.3.1.3.3,0,.4-.2.9-.2,1.3-.2.9-.4,1.8-.4,2.8.2,0,.3,0,.5,0,.4,0,.8,0,1.2-.3.1-3.8,1.5-5.9,2.8-5.9s.9.4.9,1.1c0,1.5-1.3,4-3.1,5.1,0,1.8.3,2.8.4,3.2.7-2.9,1.9-4.5,2.8-4.5s.8.3.8.8c0,.9-.8,2.1-.8,3s.1.4.3.4c.6,0,1.8-2.1,1.8-2.1,0-.2.2-.3.3-.3s.2,0,.2.2,0,.2-.1.3c0,0-1.2,2.3-2.2,2.3ZM380.3,131.7c1.5-1,2.6-3.2,2.6-4.5s-.2-.6-.5-.6c-.8,0-1.9,2-2.1,5.1Z"/>
        <path class="cls-3" d="M386.9,135.2c.7,0,1.4-1.6,1.6-2.1,0,0,.1-.2.2-.2s.2,0,.2.2,0,0,0,.2c-.3.6-1,2.4-2.1,2.4s-1.2-.6-1.2-2,.1-1.9.2-2.3c0-.2.2-.5.4-.5s.4.1.4.3-.1.3-.2.6c0,.3-.2.8-.2,1.8s.3,1.5.7,1.5ZM387.1,128.2c.2,0,.4.2.4.4s-.2.5-.5.5-.4-.2-.4-.4.2-.6.5-.6Z"/>
        <path class="cls-3" d="M389,134c.6-1.3,1.4-2.6,2.3-2.6s.8.4.9,1.2c.2,2,.3,2.5.9,2.5s1.2-1.5,1.4-1.9c0-.2.2-.3.3-.3s.2,0,.2.2,0,.2,0,.3c0,.3-.8,2.3-2,2.3s-1.1-.9-1.3-2.9c0-.5-.1-.9-.4-.9-.6,0-1.5,1.6-2,2.8-.3.7-.4.9-.4,1.2,0,.2-.1.3-.3.3s-.3-.1-.3-.3,0-.4.2-.7c.3-1.6.3-2.2.3-2.8s0-.6-.1-.7c0,0,0-.1,0-.2,0-.1.1-.3.3-.3s.2,0,.3.2c0,0,.1.4.1,1s0,.7,0,1.1c0,.2,0,.4,0,.5Z"/>
        <path class="cls-3" d="M400.3,133.1c0,0,.2,0,.2.2s0,.2-.2.2c-.4.2-1.1.5-1.4.8,0,0,0,0,0,.2,0,0,0,1,0,1.4,0,2.7-1.4,3.9-2.4,3.9s-1.3-.5-1.3-1.3c0-1.3,1.4-3,2.9-4.4,0,0,0,0,0-.1,0-.5-.3-1.7-.4-1.7s-1.1,3.6-2.6,3.6-1-.5-1-1.4c0-1.7,1.4-3.7,2.9-3.7s.4.1.4.1c0-.3-.1-.5-.1-.7s.2-.4.4-.4.4,0,.4.4c0,.5.6,3.4.6,3.4.5-.3,1-.5,1.3-.7,0,0,0,0,.2,0ZM397.3,131.7c-.3,0-.2-.2-.5-.2-1,0-2,1.7-2,3.3s.2.8.4.8c.6,0,1.5-1.6,2.1-3.9ZM395.8,138.6c0,.6.3.9.8.9.8,0,1.8-1.1,1.8-3.4s0-1.3,0-1.3c-1.3,1.2-2.5,2.7-2.5,3.8Z"/>
        <path class="cls-3" d="M410.7,132.9c.1,0,.2,0,.2.2s0,.2,0,.2c0,0-1.1,2.3-2.2,2.3s-.9-.4-.9-.9c0-1.1.8-2.2.8-3s0-.3-.3-.3c-.6,0-2,1.7-2.9,4-.1.4-.1.8-.6.8s-.4-.3-.5-.5c-.2-.6-.5-1.6-.5-3,0-4.2,2-7,3.5-7s1.1.4,1.1,1.2c0,1.5-2.2,4.3-3.8,6.2-.1.2-.2.3-.2.6,0,.7.3,1.6.3,1.6s0,0,.1-.2c.9-2.5,2.5-4.2,3.4-4.2s.8.3.8.8c0,1-.8,1.9-.8,3s.1.4.3.4c.5,0,1.7-2.1,1.7-2.1,0,0,0-.2.2-.2ZM404.6,132.6c1.3-1.8,3.4-4.3,3.4-5.6s-.2-.8-.6-.8c-1.1,0-2.9,2.5-2.9,6.4s0,0,0,0Z"/>
        <path class="cls-3" d="M416.7,135.7c-.6,0-1.3-.5-1.6-2.6-.3.2-.7.3-1.1.4-.1,1.5-1.2,2.7-2.3,2.7s-1.5-.6-1.5-1.7c0-1.9,1.4-3.5,2.6-3.5s.9.3,1,.6c0,0,0,0,0,.1,0,.2-.1.3-.3.3s-.1,0-.2-.1c-.2-.2-.3-.4-.7-.4-.7,0-1.9,1.4-1.9,2.9s.4,1.3,1,1.3c.8,0,1.6-1,1.7-2.2-.2,0-.3-.3-.3-.5s.2-.4.4-.4.4.2.4.5c.4,0,.7-.2,1.1-.4,0,0,0-.5,0-.7,0-3,.6-5.6,2-5.6s1,.4,1,1.4c0,1.5-.9,3.9-2.4,5.1.1,2.1.7,2.5,1.1,2.5.7,0,1.2-1.6,1.4-2.1,0-.2.2-.2.3-.2s.2,0,.2.2,0,.2,0,.4c-.3.7-.8,2.2-1.9,2.2ZM417.5,127.6c0-.8-.2-.9-.4-.9-.8,0-1.4,2.4-1.4,5.3,1.1-1.2,1.8-3.2,1.8-4.4Z"/>
        <path class="cls-3" d="M421.2,131.3s0-.5,0-1.2c0-3.2.8-3.9,1.5-3.9s.8.4.8,1.1c0,1.7-1.5,5-1.5,5.5,0,1.1.5,2.5.9,2.5.7,0,1.4-1.6,1.6-2.1,0-.1.1-.2.2-.2.1,0,.2,0,.2.2s0,.1,0,.3c-.2.5-.9,2.2-2,2.2s-1.2-1.8-1.3-1.8c-.2,0-1,2-2.3,2s-1.1-.4-1.1-1.3c0-2,1.7-3.5,2.7-3.5s.5.1.5.1ZM421.2,132.4c0-.1,0-.3,0-.5-.3,0-.3-.3-.6-.3-.7,0-1.9,1.2-1.9,3s.2.7.5.7c.6,0,1.4-1,2-2.4,0-.1,0-.3,0-.7ZM421.7,131.5c.6-1.8,1.1-3.7,1.1-4.4s0-.5-.2-.5c-.4,0-.9,1-.9,5h0Z"/>
        <path class="cls-3" d="M426.7,135c0-.9-2.3-.7-2.3-2s1.4-2,2.4-2,.9.3.9.7-.4,1.2-.7,1.2-.3,0-.3-.2,0-.2.2-.3c.1-.1.3-.4.3-.6s-.1-.3-.3-.3c-.7,0-1.7.6-1.7,1.4s2.3.8,2.3,2-.6,1.2-1.4,1.2-.7-.1-1-.3c-.1,0-.2-.2-.2-.3,0-.2.1-.3.3-.3s.2,0,.3.1c.1.1.3.3.6.3.5,0,.8-.3.8-.7Z"/>
        <path class="cls-3" d="M432.9,135.9c-.5,0-.9-.3-.9-1.1,0-1.9,1.8-3.8,3.2-3.8s.8.3.8.5c.1,0,.3,0,.3.3s-.4,1-.4,1.7.1,1,.5,1c.5,0,1.2-1.3,1.2-1.3,0-.1.1-.2.2-.2s.2,0,.2.2,0,.2,0,.2c0,0-.8,1.6-1.7,1.6s-.9-1.3-1-1.3-1.3,2.3-2.4,2.3ZM434.9,133.1c.3-.5.5-1.3.8-1.4,0-.1-.2-.2-.5-.2-.9,0-2.6,1.7-2.6,3.3s.1.6.4.6c.5,0,1.1-1,1.8-2.3Z"/>
        <path class="cls-3" d="M443.6,135c0-.9-2.3-.7-2.3-2s1.4-2,2.4-2,.9.3.9.7-.4,1.2-.7,1.2-.3,0-.3-.2,0-.2.2-.3c.1-.1.3-.4.3-.6s-.1-.3-.3-.3c-.7,0-1.7.6-1.7,1.4s2.3.8,2.3,2-.6,1.2-1.4,1.2-.7-.1-1-.3c-.1,0-.2-.2-.2-.3,0-.2.1-.3.3-.3s.2,0,.3.1c.1.1.3.3.6.3.5,0,.8-.3.8-.7Z"/>
        <path class="cls-3" d="M446.7,127.9c.2,0,.3.2.3.3,0,.4-.2.9-.2,1.3-.1.6-.3,1.3-.4,2,1.1.2,2.1.3,2.8.3s.3.2.3.3-.3.3-.4.4c-.4.4-.8,1.1-.8,2s.3,1.1.9,1.1c.9,0,1.8-1.7,1.8-3.2s-.3-1.2-1-1.2-.9.2-.9.2c0,0,0,0-.1,0-.1,0-.2-.1-.2-.2s0-.2.1-.2c0,0,.5-.4,1.1-.4,1,0,1.6.7,1.6,1.7,0,1.9-1.3,3.8-2.5,3.8s-1.4-.6-1.4-1.6.5-1.8.9-2.3c-.6,0-1.5-.1-2.4-.3,0,.5,0,1,0,1.5,0,2.2.8,3,.8,3,0,0,.1.2.1.3,0,.2-.1.3-.3.3s-.2-.1-.2-.1c0,0-1-.9-1-3.4s0-1.1,0-1.6c-.4,0-.7-.2-1-.3-.2,0-.2-.2-.2-.3,0-.1,0-.2.2-.2s.2,0,.3,0c.3,0,.6.2.8.2.1-1.2.4-2.3.6-3.2,0-.1.1-.3.3-.3Z"/>
        <path class="cls-3" d="M455.5,130.6c.5,0,.8.3.8.6s-.1.2-.2.2c-.2,0-.3-.3-.6-.3-.7,0-1.3.9-1.7,2.2-.3,1-.5,2.2-.6,2.3,0,.2-.2.3-.3.3s-.3,0-.3-.3,0-.2,0-.4c0-.4.1-1.2.1-1.7,0-1.1-.1-1.6-.3-1.8-.2-.2-.2-.3-.2-.4,0-.2.2-.3.3-.3s.2,0,.3.2c0,.1.4.6.4,2,.3-1.4,1.1-2.5,2.1-2.5Z"/>
        <path class="cls-3" d="M457.6,135.8c-.4,0-1.1-.3-1.1-1.3s.6-2.7,1.2-3.6c.1-.3.2-.4.4-.4s.3.1.3.3,0,.2-.2.3c-.6.9-1.1,2.3-1.1,3.4s.3.8.5.8c.7,0,1.9-2.2,2.3-3.4.1-.4.3-.5.5-.5s.4,0,.5.4c.2.5.3,1.1.5,2.2l1.2-.8c0,0,.2,0,.3,0,.1,0,.2.1.2.2s0,.2-.2.2c-.5.2-.9.5-1.3.8,0,0,0,.1,0,.2,0,.5,0,1,0,1.6,0,3.1-1.3,4.3-2.4,4.3s-1.5-.6-1.5-1.5c0-1.4,1.6-3.2,3.1-4.6,0,0,0,0,0-.2,0-.6-.2-1.2-.4-1.9-.6,1.5-1.8,3.6-2.9,3.6ZM458.3,138.9c0,.6.3,1.1.9,1.1.9,0,1.8-1,1.8-3.8s0-.8,0-1.3c-1.2,1.1-2.7,2.6-2.7,4Z"/>
        <path class="cls-3" d="M474.9,135.7c-.7,0-1.2-.5-1.2-1.4s.2-1.5.2-2-.8-.3-1.6-.5c0,.1,0,.2,0,.3,0,1.7-.6,3.2-1.7,3.2s-1.3-.9-1.4-1.5c-.4.9-1.1,2.1-1.9,2.1s-1-.4-1-1.1.2-1,.3-1.5.3-1,.3-1.4-.1-.5-.1-.7.1-.3.3-.3.2,0,.3.2c.1.2.2.4.2.8s-.2,1-.3,1.5c-.2.5-.3.9-.3,1.4s.2.6.4.6c.6,0,1.2-1.4,1.5-2.1,0,0,0-.2.1-.3,0-.3.2-.4.4-.4s.3.1.4.6c0,.8.3,1.6.9,1.6s1.1-1.2,1.1-2.5,0-.5,0-.7c-.3-.1-.5-.4-.5-.7s.2-.4.5-.4.4.3.6.7c1,.3,2.4,0,2.4.9s-.2,1.3-.2,2.1.2,1,.6,1c.7,0,1.4-1.5,1.6-2.1,0-.1.1-.2.2-.2s.2,0,.2.2,0,.2,0,.2c-.2.6-1,2.3-2.1,2.3ZM475.2,128.2c.2,0,.4.2.4.4s-.2.5-.5.5-.4-.2-.4-.4.2-.6.5-.6Z"/>
        <path class="cls-3" d="M482.9,135.7c-.5,0-.9-.4-.9-.9,0-1,.8-2.1.8-3s0-.3-.3-.3c-.6,0-1.6,1.5-2.3,4.4,0,.2-.2.4-.4.4s-.2,0-.4-.3c-.3-.5-.7-1.6-.7-3.5-.4.1-.8.2-1.2.2s-.3,0-.5,0c0,.2,0,.4,0,.7,0,2,.5,2.7.8,3.1,0,.1.2.2.2.3s-.1.2-.3.2-.2,0-.4-.2c-.4-.4-.9-1.4-.9-3.4s0-.5,0-.8c-.3,0-.5-.2-.8-.3-.3-.1-.3-.2-.3-.3,0-.2.1-.3.3-.3s.1,0,.2,0c.2,0,.4.2.7.2.1-1.5.4-2.9.7-4,0-.1.1-.2.3-.2.2,0,.3.1.3.3,0,.4-.2.9-.2,1.3-.2.9-.4,1.8-.4,2.8.2,0,.3,0,.5,0,.4,0,.8,0,1.2-.3.1-3.8,1.5-5.9,2.8-5.9s.9.4.9,1.1c0,1.5-1.3,4-3.1,5.1,0,1.8.3,2.8.4,3.2.7-2.9,1.9-4.5,2.8-4.5s.8.3.8.8c0,.9-.8,2.1-.8,3s.1.4.3.4c.6,0,1.8-2.1,1.8-2.1,0-.2.2-.3.3-.3s.2,0,.2.2,0,.2-.1.3c0,0-1.2,2.3-2.2,2.3ZM479.5,131.7c1.5-1,2.6-3.2,2.6-4.5s-.2-.6-.5-.6c-.8,0-1.9,2-2.1,5.1Z"/>
        <path class="cls-3" d="M486.1,135.2c.7,0,1.4-1.6,1.6-2.1,0,0,.1-.2.2-.2s.2,0,.2.2,0,0,0,.2c-.3.6-1,2.4-2.1,2.4s-1.2-.6-1.2-2,.1-1.9.2-2.3c0-.2.2-.5.4-.5s.4.1.4.3-.1.3-.2.6c0,.3-.2.8-.2,1.8s.3,1.5.7,1.5ZM486.3,128.2c.2,0,.4.2.4.4s-.2.5-.5.5-.4-.2-.4-.4.2-.6.5-.6Z"/>
        <path class="cls-3" d="M488.2,134c.6-1.3,1.4-2.6,2.3-2.6s.8.4.9,1.2c.2,2,.3,2.5.9,2.5s1.2-1.5,1.4-1.9c0-.2.2-.3.3-.3s.2,0,.2.2,0,.2,0,.3c0,.3-.8,2.3-2,2.3s-1.1-.9-1.3-2.9c0-.5-.1-.9-.4-.9-.6,0-1.5,1.6-2,2.8-.3.7-.4.9-.4,1.2,0,.2-.1.3-.3.3s-.3-.1-.3-.3,0-.4.2-.7c.3-1.6.3-2.2.3-2.8s0-.6-.1-.7c0,0,0-.1,0-.2,0-.1.1-.3.3-.3s.2,0,.3.2c0,0,.1.4.1,1s0,.7,0,1.1c0,.2,0,.4,0,.5Z"/>
        <path class="cls-3" d="M495.1,134.6c.3,0,.5.2.5.5s-.3.6-.6.6-.5-.2-.5-.5.3-.7.6-.7Z"/>
        <path class="cls-3" d="M497.5,125.9c0,1-.5,1.7-.6,1.7s-.1,0-.1,0,.2-.3.2-.9-.5-.6-.5-1.1.2-.5.4-.5.6.4.6.9Z"/>
        <path class="cls-3" d="M514,132.3c0,.2,0,.3-.3.3h-3.9c-.2,0-.3-.1-.3-.3s.1-.3.3-.3h3.8c.2,0,.3.1.3.3Z"/>
        <path class="cls-3" d="M519.5,129.7c-.1,0-.3,0-.3-.3s0-.2.2-.3c0,0,.8-.6.8-1.5s-.4-.9-1.1-.9c-2.1,0-4.1,2-4.1,3.5s1,1.2,1.9,1.5c.6.2,1.3.5,1.6.8.7-.3,1.5-.4,2.1-.4s.3.1.3.3-.1.2-.3.2c-.5,0-1.1,0-1.7.3.2.3.3.6.3.9,0,1.7-1.5,3-2.8,3s-1.5-.5-1.5-1.2c0-1.1,1.4-2.2,3-2.9-.3-.2-.8-.4-1.2-.5-1.1-.4-2.2-.8-2.2-1.9,0-1.7,2.3-4.1,4.7-4.1s1.7.6,1.7,1.5-.8,1.8-1,1.9c-.1,0-.2.2-.3.2ZM518.3,133.1c-1.5.6-2.8,1.6-2.8,2.5s.3.6.8.6c1,0,2.2-1,2.2-2.4s-.1-.5-.3-.7Z"/>
        <path class="cls-3" d="M529.9,125.9c.2,0,.3,0,.3.3s0,.1,0,.3c-.3.6-.9,2.8-1.2,5.5.9,0,1.4.4,1.4.4h0c0,0,.2.2.2.3,0,.1-.1.3-.3.3s0,0-.2,0c0,0-.5-.3-1.1-.3,0,.7,0,1.5,0,2.2s0,1,0,1.4c0,.3,0,.4,0,.5,0,.2,0,.3-.3.3s-.3-.1-.3-.3c0-.6,0-1.3,0-1.9s0-1.5,0-2.2c-.8,0-1.8.4-2.6.7-.6.2-1.3.4-1.9.5-.3,1.9-.6,2.7-.7,2.9,0,.1-.2.2-.3.2s-.3-.1-.3-.2c0-.1,0-.2,0-.3,0-.3.4-.9.6-2.4-.3,0-.5,0-.7,0-1,0-1.5-.3-1.8-.6,0,0-.2-.2-.2-.3s.1-.3.3-.3.2,0,.3.2c.2.2.6.5,1.4.5s.5,0,.8,0c.2-1.3.3-3.1.3-5.6,0,0,0-.3.3-.3s.3.3.3.3c0,2.4-.1,4.1-.3,5.5.6-.1,1.2-.3,1.8-.5.9-.3,1.9-.6,2.7-.7.3-2.9,1-5.2,1.3-5.9,0-.2.2-.2.3-.2Z"/>
      </g>
      <rect class="cls-5" x="1.7" y="1.5" width="589.6" height="176"/>
    </g>
  </g>
</svg>